<svg width="192" height="192" viewBox="0 0 192 192" fill="none" xmlns="http://www.w3.org/2000/svg">
  <defs>
    <linearGradient id="bg192" x1="0" y1="0" x2="192" y2="192" gradientUnits="userSpaceOnUse">
      <stop offset="0%" stop-color="#1e3a8a"/>
      <stop offset="100%" stop-color="#1e40af"/>
    </linearGradient>
    <linearGradient id="truck192" x1="40" y1="70" x2="155" y2="140" gradientUnits="userSpaceOnUse">
      <stop offset="0%" stop-color="#60a5fa"/>
      <stop offset="100%" stop-color="#3b82f6"/>
    </linearGradient>
  </defs>

  <!-- Background -->
  <rect width="192" height="192" rx="40" fill="url(#bg192)"/>
  <rect x="8" y="8" width="176" height="176" rx="34" fill="white" opacity="0.05"/>

  <!-- Truck cargo -->
  <rect x="26" y="74" width="78" height="52" rx="6" fill="url(#truck192)"/>
  <rect x="30" y="78" width="70" height="44" rx="3" fill="#93c5fd" opacity="0.25"/>
  <!-- Cargo lines -->
  <line x1="44" y1="82" x2="44" y2="118" stroke="#bfdbfe" stroke-width="1.5" opacity="0.3"/>
  <line x1="58" y1="82" x2="58" y2="118" stroke="#bfdbfe" stroke-width="1.5" opacity="0.3"/>
  <line x1="72" y1="82" x2="72" y2="118" stroke="#bfdbfe" stroke-width="1.5" opacity="0.3"/>
  <line x1="86" y1="82" x2="86" y2="118" stroke="#bfdbfe" stroke-width="1.5" opacity="0.3"/>

  <!-- Truck cab -->
  <rect x="104" y="84" width="50" height="42" rx="6" fill="url(#truck192)"/>
  <!-- Windshield -->
  <rect x="110" y="89" width="34" height="20" rx="4" fill="#dbeafe"/>
  <rect x="113" y="92" width="28" height="14" rx="2" fill="#eff6ff"/>
  <!-- Bumper -->
  <rect x="150" y="106" width="10" height="20" rx="3" fill="#2563eb"/>
  <!-- Headlight -->
  <rect x="152" y="109" width="6" height="6" rx="2" fill="#fbbf24"/>

  <!-- Wheels -->
  <circle cx="54" cy="132" r="14" fill="#1e293b"/>
  <circle cx="54" cy="132" r="9" fill="#475569"/>
  <circle cx="54" cy="132" r="4" fill="#94a3b8"/>
  <circle cx="132" cy="132" r="14" fill="#1e293b"/>
  <circle cx="132" cy="132" r="9" fill="#475569"/>
  <circle cx="132" cy="132" r="4" fill="#94a3b8"/>

  <!-- Ground -->
  <rect x="22" y="148" width="148" height="3" rx="1.5" fill="#60a5fa" opacity="0.25"/>

  <!-- Wrench icon (top-right) -->
  <g transform="translate(130, 22)">
    <rect x="0" y="12" width="32" height="7" rx="3.5" fill="#fbbf24" transform="rotate(-45, 16, 15.5)"/>
    <circle cx="6" cy="26" r="7" fill="none" stroke="#fbbf24" stroke-width="3"/>
    <circle cx="26" cy="6" r="7" fill="none" stroke="#fbbf24" stroke-width="3"/>
  </g>

  <!-- Checkmark badge (bottom-right) -->
  <circle cx="158" cy="158" r="18" fill="#059669"/>
  <path d="M149 158L155 164L167 152" stroke="white" stroke-width="3.5" stroke-linecap="round" stroke-linejoin="round" fill="none"/>

  <!-- Gear (top-left) -->
  <g transform="translate(22, 22)" opacity="0.5">
    <circle cx="14" cy="14" r="7" fill="none" stroke="#fbbf24" stroke-width="2.5"/>
    <circle cx="14" cy="14" r="3" fill="#fbbf24"/>
    <line x1="14" y1="4" x2="14" y2="8" stroke="#fbbf24" stroke-width="2.5" stroke-linecap="round"/>
    <line x1="14" y1="20" x2="14" y2="24" stroke="#fbbf24" stroke-width="2.5" stroke-linecap="round"/>
    <line x1="4" y1="14" x2="8" y2="14" stroke="#fbbf24" stroke-width="2.5" stroke-linecap="round"/>
    <line x1="20" y1="14" x2="24" y2="14" stroke="#fbbf24" stroke-width="2.5" stroke-linecap="round"/>
    <line x1="7" y1="7" x2="10" y2="10" stroke="#fbbf24" stroke-width="2.5" stroke-linecap="round"/>
    <line x1="18" y1="18" x2="21" y2="21" stroke="#fbbf24" stroke-width="2.5" stroke-linecap="round"/>
    <line x1="7" y1="21" x2="10" y2="18" stroke="#fbbf24" stroke-width="2.5" stroke-linecap="round"/>
    <line x1="18" y1="10" x2="21" y2="7" stroke="#fbbf24" stroke-width="2.5" stroke-linecap="round"/>
  </g>
</svg>
